<svg width="300" height="61" viewBox="0 0 300 61" fill="none" xmlns="http://www.w3.org/2000/svg">
<path d="M59.1882 12.1071H75.3871C78.9032 12.1071 81.7688 13.2779 83.9785 15.6247C86.1828 17.977 87.2903 20.9417 87.2903 24.5244C87.2903 27.8631 86.0753 30.6977 83.6398 33.0283C81.2097 35.3589 78.3172 36.5242 74.9731 36.5242H67.2581V48.6271H59.1882V12.1071ZM42.4946 22.3618C43.6129 20.4268 42.9516 17.9391 41.0323 16.8171C39.1075 15.6952 36.6452 16.3564 35.5323 18.2968C33.3979 22.0095 32.2796 26.21 32.2796 30.5026C32.2796 34.7953 33.3979 38.9903 35.5323 42.703C36.6452 44.6434 39.1075 45.3046 41.0323 44.1827C42.9516 43.0608 43.6129 40.5784 42.4946 38.638C41.0753 36.1557 40.3495 33.3644 40.3495 30.5026C40.3495 27.6354 41.0753 24.8441 42.4946 22.3618ZM28.5161 14.2264C29.6344 12.2914 28.9785 9.80363 27.0538 8.68169C25.129 7.55975 22.6667 8.22099 21.5538 10.1614C18 16.3564 16.1398 23.3428 16.1398 30.5026C16.1398 37.657 17.9946 44.6488 21.5538 50.8385C22.6667 52.7788 25.129 53.4401 27.0538 52.3181C28.9785 51.1962 29.6344 48.7138 28.5161 46.7735C25.672 41.8142 24.2097 36.2316 24.2097 30.5026C24.2097 24.7737 25.672 19.1911 28.5161 14.2264ZM14.5376 6.09093C15.6559 4.15057 14.9946 1.66821 13.0753 0.54627C11.1505 -0.57567 8.68817 0.0855701 7.57527 2.02593C2.59677 10.6979 0 20.481 0 30.5026C0 40.5188 2.59677 50.3019 7.57527 58.9793C8.68817 60.9142 11.1505 61.5755 13.0753 60.4535C14.9946 59.3316 15.6559 56.8492 14.5376 54.9089C10.2688 47.4672 8.06989 39.0933 8.06989 30.5026C8.06989 21.9065 10.2688 13.5326 14.5376 6.09093ZM67.2581 29.7384H74.0914C75.6075 29.7384 76.8333 29.2343 77.7634 28.2262C78.6989 27.2181 79.1613 25.9498 79.1613 24.416C79.1613 22.855 78.7097 21.5921 77.7903 20.6328C76.8764 19.6789 75.6452 19.2019 74.0914 19.2019H67.2581V29.7384ZM102.296 21.1314C106.199 21.1314 109.36 22.2696 111.796 24.546C114.226 26.8279 115.446 29.8956 115.446 33.7546V48.6271H107.527V45.1312C105.629 47.8791 102.677 49.2558 98.6774 49.2558C96.0161 49.2558 93.7312 48.497 91.8172 46.9848C89.9032 45.4727 88.9462 43.4293 88.9462 40.8548C88.9462 38.0689 90.0054 35.9551 92.129 34.5134C94.2473 33.0717 96.7581 32.3508 99.6559 32.3508C102.796 32.3508 105.419 33.1476 107.527 34.7465V33.4457C107.527 31.5324 106.914 30.0094 105.688 28.8766C104.462 27.7493 102.887 27.1856 100.952 27.1856C97.8495 27.1856 95.2581 27.9823 93.1882 29.5812L90.7043 24.6815C92.1183 23.5325 93.8979 22.6545 96.0376 22.042C98.1774 21.435 100.263 21.1314 102.296 21.1314ZM101.419 43.825C104.005 43.825 106.043 42.974 107.527 41.2722V38.2424C105.871 37.2017 103.989 36.6814 101.882 36.6814C100.575 36.6814 99.4086 36.9741 98.3925 37.5649C97.371 38.1557 96.8656 39.0608 96.8656 40.2803C96.8656 41.4293 97.3226 42.3074 98.2366 42.9144C99.1505 43.5215 100.21 43.825 101.419 43.825ZM131.124 21.1314C134.989 21.1314 138.403 21.9336 141.371 23.5325L139.457 28.6978C136.769 27.4078 134.091 26.7682 131.435 26.7682C130.538 26.7682 129.737 26.9417 129.027 27.2886C128.323 27.6354 127.968 28.2262 127.968 29.0609C127.968 30.107 128.882 30.92 130.71 31.5162L134.645 32.817C139.403 34.4863 141.785 37.1855 141.785 40.9036C141.785 43.722 140.699 45.8195 138.527 47.1908C136.355 48.5675 133.785 49.2558 130.817 49.2558C128.78 49.2558 126.667 49.0173 124.473 48.5512C122.285 48.0797 120.5 47.3588 119.118 46.3832L121.5 41.1638C124.328 42.7301 127.296 43.516 130.403 43.516C131.333 43.516 132.22 43.3318 133.065 42.9686C133.914 42.6001 134.333 42.0201 134.333 41.218C134.333 40.1069 133.349 39.218 131.382 38.5567L127.398 37.2559C125.226 36.4538 123.532 35.4348 122.328 34.1991C121.118 32.9687 120.516 31.321 120.516 29.2723C120.516 26.5569 121.57 24.5244 123.672 23.1639C125.78 21.8089 128.263 21.1314 131.124 21.1314ZM156.328 21.1314C160.194 21.1314 163.613 21.9336 166.575 23.5325L164.661 28.6978C161.973 27.4078 159.296 26.7682 156.64 26.7682C155.742 26.7682 154.941 26.9417 154.231 27.2886C153.527 27.6354 153.172 28.2262 153.172 29.0609C153.172 30.107 154.086 30.92 155.914 31.5162L159.849 32.817C164.608 34.4863 166.989 37.1855 166.989 40.9036C166.989 43.722 165.903 45.8195 163.731 47.1908C161.559 48.5675 158.989 49.2558 156.022 49.2558C153.984 49.2558 151.871 49.0173 149.677 48.5512C147.489 48.0797 145.704 47.3588 144.323 46.3832L146.704 41.1638C149.532 42.7301 152.5 43.516 155.608 43.516C156.538 43.516 157.425 43.3318 158.269 42.9686C159.118 42.6001 159.538 42.0201 159.538 41.218C159.538 40.1069 158.554 39.218 156.586 38.5567L152.602 37.2559C150.43 36.4538 148.742 35.4348 147.532 34.1991C146.323 32.9687 145.72 31.321 145.72 29.2723C145.72 26.5569 146.774 24.5244 148.876 23.1639C150.984 21.8089 153.468 21.1314 156.328 21.1314ZM211.032 12.1071L214.398 48.6271H206.274L204.409 26.3997L195.613 48.2098H189.919L181.118 26.3509L179.258 48.6271H171.134L174.495 12.1071H182.882L192.763 36.2099L202.651 12.1071H211.032ZM245.554 34.3291C245.554 35.5161 245.484 36.3129 245.349 36.7302H225.785C226.059 38.8548 226.909 40.4375 228.323 41.4781C229.737 42.5242 231.527 43.0445 233.704 43.0445C236.602 43.0445 238.844 42.5079 240.43 41.4293L243.28 46.329C240.446 48.2802 237 49.2558 232.925 49.2558C228.613 49.2558 225.059 47.993 222.263 45.4727C219.473 42.9469 218.075 39.5323 218.075 35.218C218.075 31.0121 219.382 27.6083 222.005 25.0176C224.629 22.4268 228.027 21.1314 232.204 21.1314C236.172 21.1314 239.387 22.3293 241.855 24.7303C244.323 27.1314 245.554 30.3292 245.554 34.3291ZM232.097 27.0284C230.548 27.0284 229.237 27.5216 228.167 28.5135C227.097 29.5053 226.371 30.7845 225.989 32.3508H237.844C237.672 30.6815 237.086 29.3753 236.086 28.4376C235.086 27.4945 233.753 27.0284 232.097 27.0284ZM266.306 21.1314C269.446 21.1314 271.844 22.3022 273.5 24.6544C275.156 27.0013 275.984 29.8089 275.984 33.0771V48.6271H268.07V33.5487C268.07 31.8793 267.677 30.4593 266.903 29.294C266.129 28.1287 264.946 27.5487 263.36 27.5487C261.634 27.5487 260.312 28.2371 259.398 29.6083C258.484 30.985 258.027 32.5893 258.027 34.4375V48.6271H250.108V21.7547H258.027V25.9823C258.715 24.4539 259.828 23.2615 261.366 22.4106C262.903 21.5596 264.548 21.1314 266.306 21.1314ZM298.188 41.8955L300 47.0607C298.032 48.5241 295.479 49.2558 292.339 49.2558C289.72 49.2558 287.559 48.5024 285.871 47.0119C284.183 45.516 283.333 43.4618 283.333 40.8548V27.6517H279.349V21.7547H283.957L285.355 14.557H291.097V21.7547H298.656V27.6517H291.097V38.8711C291.097 40.0906 291.392 41.0554 291.979 41.7654C292.565 42.4808 293.446 42.8331 294.618 42.8331C295.93 42.8331 297.118 42.5242 298.188 41.8955Z" fill="url(#paint0_linear)"/>
<defs>
<linearGradient id="paint0_linear" x1="141.704" y1="-10.9496" x2="158.555" y2="71.8965" gradientUnits="userSpaceOnUse">
<stop stop-color="#00AEFF"/>
<stop offset="1" stop-color="#0BCED1"/>
</linearGradient>
</defs>
</svg>
