<svg width="19" height="20" viewBox="0 0 19 20" fill="none" xmlns="http://www.w3.org/2000/svg">
<path fill-rule="evenodd" clip-rule="evenodd" d="M16.8267 1.95082C16.3293 1.492 14.3208 0.0340821 9.84759 0.0143573C9.84759 0.0143573 4.57162 -0.303813 1.99967 2.05545C0.568336 3.48764 0.0649236 5.58276 0.0117523 8.18044C-0.041419 10.7773 -0.110028 15.6459 4.58191 16.9657H4.58706L4.58363 18.9794C4.58363 18.9794 4.55361 19.7949 5.09047 19.9613C5.73967 20.1628 6.12131 19.5437 6.74135 18.8756C7.08182 18.5085 7.55179 17.97 7.90598 17.5583C11.1151 17.8285 13.5833 17.211 13.8637 17.1201C14.5112 16.9091 18.1783 16.4391 18.7744 11.5723C19.3901 6.55443 18.4768 3.3813 16.8267 1.95082ZM10.2266 11.4556C10.2266 11.4556 10.5825 11.4856 10.7738 11.2498L11.1477 10.7798C11.3278 10.5466 11.7618 10.3982 12.188 10.6358C12.5062 10.8167 12.8166 11.0157 13.115 11.2284C13.3972 11.4359 13.9752 11.9187 13.9778 11.9187C14.2531 12.1511 14.3165 12.4925 14.1287 12.8527C14.1287 12.8544 14.127 12.8587 14.127 12.8604C13.9212 13.218 13.6588 13.5413 13.3509 13.8166C13.3475 13.8183 13.3475 13.82 13.344 13.8217C13.0765 14.0456 12.8132 14.1734 12.555 14.2034C12.525 14.2085 12.495 14.2111 12.465 14.2111C12.4564 14.2111 12.4478 14.2111 12.4401 14.2111C12.4367 14.2111 12.4333 14.2111 12.4298 14.2111C12.3192 14.2111 12.2094 14.1931 12.1039 14.1588L12.0962 14.1468C11.6983 14.0344 11.0336 13.754 9.92649 13.1434C9.28757 12.7952 8.6761 12.3895 8.10494 11.9384C7.8185 11.7146 7.54321 11.4693 7.28507 11.2129L7.25763 11.1855L7.23019 11.158L7.22933 11.1572L7.20188 11.1297C7.19245 11.1203 7.18388 11.1117 7.17444 11.1023C6.91716 10.8442 6.67274 10.5689 6.44719 10.2833C5.99867 9.71212 5.59131 9.09807 5.24398 8.46088C4.63337 7.35371 4.35207 6.68993 4.23973 6.29114L4.22772 6.28257C4.19428 6.17794 4.17627 6.06817 4.17627 5.95839C4.17627 5.95496 4.17627 5.95068 4.17627 5.94725C4.17627 5.93781 4.17541 5.92838 4.17541 5.9198C4.17541 5.88979 4.17798 5.86063 4.18313 5.83147C4.21572 5.57419 4.34264 5.3109 4.56562 5.04248C4.56733 5.03904 4.56905 5.03904 4.57076 5.03561C4.84605 4.72688 5.17023 4.46445 5.52785 4.25863C5.52956 4.25863 5.53299 4.25691 5.53556 4.25691C5.89576 4.0691 6.23708 4.13256 6.46949 4.40699C6.47121 4.40871 6.95318 4.98673 7.15986 5.26974C7.37169 5.56733 7.57065 5.87864 7.75161 6.19766C7.98916 6.62303 7.83994 7.05784 7.60753 7.23794L7.13756 7.61099C6.90087 7.80224 6.93174 8.15814 6.93174 8.15814C6.93174 8.15814 7.62725 10.7918 10.2266 11.4556ZM14.3157 9.27388C14.1768 9.27388 14.0644 9.16154 14.0627 9.0226C14.0507 7.47635 13.6056 6.29543 12.7008 5.4121C11.8072 4.54164 10.6786 4.09483 9.34503 4.08539C9.20524 4.08539 9.0929 3.97133 9.0929 3.8324C9.0929 3.69261 9.2061 3.57941 9.34589 3.57941H9.34675H9.34846C10.8167 3.59056 12.0636 4.08453 13.0542 5.05019C14.0455 6.015 14.5558 7.35285 14.5695 9.02003C14.5695 9.02003 14.5695 9.02089 14.5695 9.02175C14.5695 9.16068 14.4572 9.27388 14.3183 9.27474L14.3157 9.27388ZM12.9873 8.75503H12.9813C12.844 8.7516 12.7343 8.63926 12.7343 8.50204C12.7343 8.50032 12.7343 8.49775 12.7343 8.49604C12.754 7.63158 12.507 6.93091 11.9787 6.35546C11.4513 5.78001 10.7326 5.46785 9.77469 5.39752C9.64176 5.38809 9.53971 5.27746 9.53971 5.14453C9.53971 5.00474 9.65291 4.89154 9.7927 4.89154C9.7987 4.89154 9.80556 4.89154 9.81157 4.8924C10.8896 4.97129 11.7446 5.34864 12.3518 6.01328C12.9598 6.67792 13.2617 7.51923 13.2403 8.50633C13.2368 8.6444 13.1253 8.75418 12.9873 8.75503ZM11.6889 8.31937C11.5542 8.31937 11.4436 8.21389 11.4367 8.07924C11.3938 7.22078 10.9891 6.80056 10.1632 6.75596C10.032 6.74567 9.93077 6.6359 9.93077 6.50383C9.93077 6.36404 10.044 6.25084 10.1838 6.25084C10.1855 6.25084 10.1881 6.25084 10.1906 6.25084C11.2798 6.31087 11.8861 6.93263 11.9418 8.05437C11.9418 8.05866 11.9418 8.06295 11.9418 8.06724C11.9418 8.20188 11.8364 8.31337 11.7017 8.31937H11.6889ZM17.3705 11.2121C16.8671 15.2762 13.8929 15.5318 13.3449 15.7076C13.1116 15.7831 10.9436 16.3225 8.21728 16.1441C8.21728 16.1441 6.18648 18.5943 5.55186 19.2324C5.45323 19.3318 5.3366 19.3721 5.25856 19.3524C5.14964 19.325 5.11963 19.1955 5.12048 19.0068C5.1222 18.7367 5.13849 15.6596 5.13849 15.6596C5.13849 15.6596 5.13592 15.6596 5.13849 15.6596C1.16866 14.5576 1.40021 10.4145 1.4448 8.24476C1.49026 6.07503 1.89762 4.29808 3.10855 3.10258C5.28343 1.13181 9.7644 1.42683 9.7644 1.42683C13.549 1.44312 15.362 2.58287 15.783 2.96451C17.1792 4.16 17.8902 7.02011 17.3705 11.2112V11.2121Z" fill="#00AEFF"/>
</svg>
