<svg width="32" height="30" viewBox="0 0 32 30" fill="none" xmlns="http://www.w3.org/2000/svg">
<path fill-rule="evenodd" clip-rule="evenodd" d="M15.6083 11.4181C14.4988 11.4181 13.6005 10.5158 13.6005 9.40291V2.01462C13.6005 0.902231 14.4988 0 15.6083 0C16.7172 0 17.6155 0.902231 17.6155 2.01462V9.40291C17.6155 10.5158 16.7172 11.4181 15.6083 11.4181Z" fill="#00AEFF"/>
<path fill-rule="evenodd" clip-rule="evenodd" d="M10.9183 14.8365C10.5752 15.8948 9.44286 16.474 8.38848 16.1303L1.38752 13.8468C0.333136 13.503 -0.243392 12.3665 0.0985093 11.3076C0.440985 10.2487 1.57397 9.67016 2.62835 10.0145L9.62875 12.2973C10.6843 12.6411 11.2608 13.7782 10.9183 14.8365Z" fill="#00AEFF"/>
<path fill-rule="evenodd" clip-rule="evenodd" d="M20.2983 14.8377C20.6414 15.896 21.7732 16.4753 22.8276 16.131L29.8285 13.848C30.883 13.5043 31.4601 12.3671 31.117 11.3089C30.7751 10.2506 29.6427 9.67134 28.5878 10.0151L21.5868 12.2986C20.5324 12.6423 19.9559 13.7795 20.2983 14.8377Z" fill="#00AEFF"/>
<path fill-rule="evenodd" clip-rule="evenodd" d="M6.01959 29.6159C5.12236 28.9624 4.92273 27.702 5.57441 26.801L9.89979 20.8228C10.5509 19.9223 11.8066 19.7225 12.7027 20.3765C13.6005 21.0307 13.8001 22.2904 13.1478 23.1904L8.82302 29.1697C8.17197 30.069 6.91561 30.2694 6.01959 29.6159Z" fill="#00AEFF"/>
<path fill-rule="evenodd" clip-rule="evenodd" d="M25.1972 29.6159C26.0945 28.9624 26.2935 27.702 25.6418 26.801L21.317 20.8228C20.6659 19.9223 19.4101 19.7225 18.513 20.3765C17.6163 21.0307 17.4167 22.2904 18.0684 23.1904L22.3937 29.1697C23.0449 30.069 24.3012 30.2694 25.1972 29.6159Z" fill="#00AEFF"/>
</svg>
