<svg width="25" height="20" viewBox="0 0 25 20" fill="none" xmlns="http://www.w3.org/2000/svg">
<path fill-rule="evenodd" clip-rule="evenodd" d="M1.48312 8.70847L15.8903 2.77411C17.3128 2.15565 22.1367 0.176591 22.1367 0.176591C22.1367 0.176591 24.3632 -0.689247 24.1776 1.4135C24.1158 2.27934 23.621 5.30697 23.1263 8.58478L21.5801 18.2945C21.5801 18.2945 21.4564 19.717 20.4051 19.9644C19.3537 20.2118 17.622 19.0985 17.3128 18.8512C17.0654 18.6656 12.6744 15.8826 11.0664 14.522C10.6335 14.1509 10.1387 13.4087 11.1282 12.5429C13.3547 10.502 16.014 7.96632 17.622 6.35834C18.3642 5.61619 19.1063 3.88452 16.014 5.98727L7.29379 11.8626C7.29379 11.8626 6.30707 12.4811 4.4517 11.9244C2.59634 11.3678 0.43174 10.6257 0.43174 10.6257C0.43174 10.6257 -1.05255 9.698 1.48312 8.70847Z" fill="#00AEFF"/>
</svg>
