<svg width="30" height="23" viewBox="0 0 30 23" fill="none" xmlns="http://www.w3.org/2000/svg">
<path fill-rule="evenodd" clip-rule="evenodd" d="M27.3634 0H2.6366C1.18444 0 0 1.18342 0 2.63686V20.2151C0 21.6635 1.17908 22.852 2.6366 22.852H27.3634C28.812 22.852 30 21.6727 30 20.2151V2.63686C30 1.18853 28.8209 0 27.3634 0ZM26.3995 2.35791L15.3033 13.4541C15.1668 13.5906 14.9445 13.5911 14.8074 13.4551L3.61534 2.35893C3.51198 2.25659 3.48238 2.1101 3.53776 1.9756C3.59314 1.8411 3.71717 1.75791 3.86265 1.75791H26.1509C26.2961 1.75791 26.4199 1.84085 26.4755 1.97484C26.5312 2.10908 26.5021 2.25506 26.3995 2.35791ZM1.7574 19.0026V3.83559C1.7574 3.69063 1.84008 3.56711 1.97382 3.51122C2.10755 3.45558 2.25353 3.48416 2.35638 3.58599L9.97269 11.1372C10.0416 11.2056 10.0766 11.2888 10.0768 11.3858C10.0768 11.4828 10.0424 11.5665 9.97371 11.6351L2.35715 19.2512C2.25455 19.3541 2.10831 19.3832 1.97433 19.3275C1.84008 19.2719 1.7574 19.1478 1.7574 19.0026ZM3.60029 20.4943L11.224 12.8706C11.3605 12.7341 11.5828 12.7336 11.7199 12.8694L14.4399 15.5657C14.7835 15.9066 15.338 15.9054 15.68 15.5634L18.3258 12.9176C18.4626 12.7808 18.6859 12.7808 18.8227 12.9176L26.3997 20.4943C26.5021 20.5969 26.5312 20.7432 26.4758 20.8772C26.4201 21.0114 26.2961 21.0941 26.1511 21.0941H3.84886C3.70365 21.0941 3.57987 21.0114 3.52423 20.8772C3.46885 20.7432 3.49769 20.5969 3.60029 20.4943ZM27.6426 19.2512L20.0656 11.6744C19.9288 11.5374 19.9288 11.3143 20.0656 11.1776L27.6426 3.60054C27.7455 3.49794 27.8914 3.46885 28.0257 3.52449C28.1597 3.58012 28.2426 3.7039 28.2426 3.84912V19.0026C28.2426 19.1478 28.1597 19.2719 28.0257 19.3275C27.8914 19.3832 27.7455 19.3541 27.6426 19.2512Z" fill="#00AEFF"/>
</svg>
