<svg width="30" height="30" viewBox="0 0 30 30" fill="none" xmlns="http://www.w3.org/2000/svg">
<path d="M9.44301 1.0481C13.2044 -0.451049 17.5857 -0.34735 21.2468 1.39387C20.2036 1.23538 19.1424 1.35486 18.1098 1.52945C15.3053 2.05909 12.64 3.3787 10.5568 5.33908C8.55924 7.30256 7.15946 9.90773 6.76416 12.6949C6.50259 14.6698 6.74497 16.7414 7.63121 18.5389C8.54439 20.425 10.1519 21.9718 12.0894 22.7701C13.9562 23.5601 16.1219 23.5515 18.0129 22.8463C20.8502 21.805 22.8889 18.9933 23.122 15.9895C23.2687 14.0207 22.7899 11.9263 21.4672 10.4163C20.2045 8.93822 18.3577 8.1241 16.5097 7.66071C16.4107 5.83808 17.2694 4.03743 18.6311 2.85216C19.3873 2.17022 20.3259 1.73561 21.2963 1.45733L21.37 1.43194C24.1482 2.76425 26.5088 4.96143 28.0129 7.65885C29.3016 9.9554 29.9736 12.6017 29.907 15.2379C29.8944 18.6466 28.6202 22.0217 26.4361 24.6281C24.3707 27.1138 21.482 28.9017 18.3336 29.6177C15.1768 30.3461 11.7804 30.0319 8.82608 28.6903C5.93519 27.3992 3.48603 25.1546 1.92807 22.3937C0.63198 20.0994 -0.0536733 17.4539 0.0032839 14.8147C0.00947497 11.5264 1.1771 8.2634 3.21579 5.69197C4.84434 3.63872 7.00468 2.00616 9.44301 1.0481Z" fill="#00AEFF"/>
</svg>
