<svg width="20" height="20" viewBox="0 0 20 20" fill="none" xmlns="http://www.w3.org/2000/svg">
<path d="M0 20L1.40661 14.8648C0.539317 13.3614 0.0827001 11.6565 0.083407 9.90988C0.0855275 4.44602 4.53225 0 9.99682 0C12.6489 0.00141368 15.1377 1.0334 17.0094 2.90652C18.8811 4.77964 19.9109 7.26984 19.9102 9.91765C19.9081 15.3815 15.4607 19.8282 9.99682 19.8282C9.99611 19.8282 9.99753 19.8282 9.99682 19.8282H9.99258C8.33363 19.8275 6.70295 19.4112 5.25535 18.6217L0 20ZM7.51935 5.7671C7.33345 5.3543 7.13836 5.34653 6.96165 5.33946C6.81746 5.3331 6.65206 5.3331 6.48736 5.3331C6.32196 5.3331 6.05337 5.3953 5.82647 5.6434C5.59958 5.89079 4.95918 6.49019 4.95918 7.70878C4.95918 8.92808 5.84697 10.1057 5.97067 10.2711C6.09507 10.4358 7.68475 13.0164 10.2025 14.0095C12.2948 14.8351 12.7203 14.6704 13.1748 14.6294C13.6293 14.5884 14.64 14.03 14.8464 13.4518C15.0528 12.8737 15.0528 12.3782 14.9913 12.2743C14.9291 12.1711 14.7637 12.1089 14.5163 11.9852C14.2682 11.8615 13.0511 11.2621 12.8235 11.1794C12.5966 11.0967 12.4312 11.0557 12.2665 11.3038C12.1011 11.5512 11.6268 12.1089 11.4819 12.2743C11.3377 12.4397 11.1935 12.4602 10.9454 12.3365C10.698 12.2121 9.89998 11.9512 8.95352 11.1073C8.217 10.4506 7.72009 9.63987 7.57519 9.39176C7.43099 9.14437 7.56035 9.01007 7.68404 8.88638C7.79572 8.7754 7.93214 8.59728 8.05584 8.45238C8.17954 8.30818 8.22053 8.20498 8.30323 8.03958C8.38593 7.87418 8.34494 7.72999 8.28274 7.60558C8.22053 7.48189 7.73918 6.25694 7.51935 5.7671ZM5.4985 16.8277L5.79961 17.0058C7.06485 17.7565 8.51458 18.1537 9.99329 18.1544H9.99682C14.5383 18.1544 18.2343 14.4591 18.2364 9.91765C18.2371 7.71656 17.3812 5.64693 15.8254 4.08977C14.2697 2.5326 12.2007 1.67521 9.99965 1.67379C5.45467 1.67379 1.75861 5.36915 1.7572 9.91058C1.75649 11.467 2.19191 12.9825 3.01679 14.2944L3.21258 14.6054L2.37993 17.6455L5.4985 16.8277Z" fill="#00AEFF"/>
</svg>
