<?xml version="1.0" encoding="UTF-8"?>
<!DOCTYPE svg PUBLIC "-//W3C//DTD SVG 1.1//EN" "http://www.w3.org/Graphics/SVG/1.1/DTD/svg11.dtd">
<!-- Creator: CorelDRAW 2019 (64-Bit) -->
<svg xmlns="http://www.w3.org/2000/svg" xml:space="preserve" width="500px" height="500px" version="1.1" style="shape-rendering:geometricPrecision; text-rendering:geometricPrecision; image-rendering:optimizeQuality; fill-rule:evenodd; clip-rule:evenodd"
viewBox="0 0 152.23 152.23"
 xmlns:xlink="http://www.w3.org/1999/xlink">
 <defs>
  <style type="text/css">
   <![CDATA[
    .fil0 {fill:#1877F2;fill-rule:nonzero}
    .fil1 {fill:white;fill-rule:nonzero}
   ]]>
  </style>
 </defs>
 <g id="Слой_x0020_1">
  <metadata id="CorelCorpID_0Corel-Layer"/>
  <g id="Facebook">
   <path id="_1._x0020_Facebook" class="fil0" d="M152.23 76.11c0,-42.03 -34.08,-76.11 -76.12,-76.11 -42.03,0 -76.11,34.08 -76.11,76.11 0,37.99 27.83,69.48 64.22,75.19l0 -53.19 -19.33 0 0 -22 19.33 0 0 -16.77c0,-19.07 11.36,-29.61 28.75,-29.61 8.33,0 17.04,1.49 17.04,1.49l0 18.73 -9.6 0c-9.46,0 -12.4,5.87 -12.4,11.89l0 14.27 21.1 0 -3.37 22 -17.73 0 0 53.19c36.38,-5.71 64.22,-37.2 64.22,-75.19z"/>
   <path id="_2._x0020_Facebook" class="fil1" d="M105.74 98.11l3.37 -22 -21.1 0 0 -14.27c0,-6.02 2.94,-11.89 12.4,-11.89l9.6 0 0 -18.73c0,0 -8.71,-1.49 -17.04,-1.49 -17.39,0 -28.75,10.54 -28.75,29.61l0 16.77 -19.33 0 0 22 19.33 0 0 53.19c3.88,0.61 7.85,0.93 11.89,0.93 4.05,0 8.02,-0.32 11.9,-0.93l0 -53.19 17.73 0z"/>
  </g>
 </g>
</svg>
