<svg width="70" height="41" viewBox="0 0 70 41" fill="none" xmlns="http://www.w3.org/2000/svg">
<path d="M52.0771 12.5848L57.8838 2.52596C58.2114 1.96207 58.0133 1.2458 57.457 0.918114C56.9007 0.590503 56.1768 0.781017 55.8568 1.34485L49.9739 11.5332C45.4855 9.48331 40.4333 8.34025 35 8.34025C29.5668 8.34025 24.5145 9.48331 20.0261 11.5332L14.1433 1.34485C13.8156 0.780957 13.0993 0.590463 12.5354 0.918114C11.9715 1.2457 11.781 1.96207 12.1087 2.52596L17.9153 12.5848C7.90225 18.0104 1.12019 28.1454 0 40.0102H70C68.8798 28.1454 62.0977 18.0104 52.0771 12.5848H52.0771ZM18.9288 30.18C17.3057 30.18 15.995 28.8617 15.995 27.2462C15.995 25.6231 17.3133 24.3124 18.9288 24.3124C20.552 24.3124 21.8626 25.6307 21.8626 27.2462C21.8706 28.8617 20.552 30.18 18.9288 30.18ZM51.0636 30.18C49.4405 30.18 48.1298 28.8617 48.1298 27.2462C48.1298 25.6231 49.4481 24.3124 51.0636 24.3124C52.6867 24.3124 53.9974 25.6307 53.9974 27.2462C54.0054 28.8617 52.6867 30.18 51.0636 30.18Z" fill="#00AEFF"/>
</svg>
