<svg width="70" height="72" viewBox="0 0 70 72" fill="none" xmlns="http://www.w3.org/2000/svg">
<path fill-rule="evenodd" clip-rule="evenodd" d="M28.9538 20.8661C26.1903 20.8661 21.9116 17.7268 17.4028 17.8359C11.4515 17.9086 5.99715 21.2903 2.93062 26.6234C-3.23879 37.3502 1.34286 53.1796 7.36682 61.8943C10.3121 66.1365 13.8029 70.9 18.4208 70.7546C22.857 70.5606 24.5175 67.8697 29.8991 67.8697C35.2443 67.8697 36.7594 70.7544 41.4501 70.6332C46.2256 70.5605 49.2558 66.3185 52.1768 62.0399C55.5464 57.1189 56.9524 52.3434 57.0251 52.0768C56.916 52.0404 47.7407 48.5131 47.6316 37.9075C47.5589 29.0473 54.8676 24.8051 55.207 24.6112C51.0375 18.5145 44.6379 17.8358 42.4077 17.6782C36.5655 17.2297 31.6809 20.8661 28.9538 20.8661ZM38.7957 11.933C41.2683 8.97558 42.8925 4.84247 42.4441 0.757812C38.917 0.90326 34.6747 3.09694 32.1294 6.05438C29.8628 8.67244 27.8871 12.8785 28.4204 16.8905C32.3232 17.1935 36.3352 14.8783 38.7957 11.933Z" fill="#00AEFF"/>
</svg>
