<?xml version="1.0" encoding="UTF-8"?>
<!DOCTYPE svg PUBLIC "-//W3C//DTD SVG 1.1//EN" "http://www.w3.org/Graphics/SVG/1.1/DTD/svg11.dtd">
<!-- Creator: CorelDRAW 2019 (64-Bit) -->
<svg xmlns="http://www.w3.org/2000/svg" xml:space="preserve" width="500px" height="500px" version="1.1" style="shape-rendering:geometricPrecision; text-rendering:geometricPrecision; image-rendering:optimizeQuality; fill-rule:evenodd; clip-rule:evenodd"
viewBox="0 0 498.32 498.32"
 xmlns:xlink="http://www.w3.org/1999/xlink">
 <defs>
  <style type="text/css">
   <![CDATA[
    .fil2 {fill:#0F9D57}
    .fil0 {fill:#4284F3}
    .fil1 {fill:#D1D1D1}
    .fil3 {fill:#F0F0F0}
    .fil4 {fill:#FFDC3D}
    .fil7 {fill:#7B221D;fill-rule:nonzero}
    .fil6 {fill:#DB4437;fill-rule:nonzero}
    .fil5 {fill:#EDEDED;fill-rule:nonzero}
    .fil8 {fill:white;fill-rule:nonzero;fill-opacity:0.200000}
   ]]>
  </style>
 </defs>
 <g id="Слой_x0020_1">
  <metadata id="CorelCorpID_0Corel-Layer"/>
  <g id="Google_x0020_Maps">
   <path class="fil0" d="M249.34 251.31l-174.45 175.9c44.93,43.98 106.43,71.11 174.27,71.11 68.3,0 130.17,-27.49 175.18,-72l-175 -175.01z"/>
   <path class="fil1" d="M249.34 251.31l175 175.01c45.67,-45.17 73.98,-107.85 73.98,-177.16 0,-68.58 -27.71,-130.68 -72.54,-175.74l-176.44 177.89z"/>
   <path class="fil2" d="M249.34 251.31l176.44 -177.89c-45.13,-45.35 -107.59,-73.42 -176.62,-73.42 -137.6,0 -249.16,111.56 -249.16,249.16 0,69.76 28.68,132.82 74.89,178.05l174.45 -175.9z"/>
   <path class="fil3" d="M266.44 242.68l170.38 170.38c-8,9.14 -16.65,17.69 -25.89,25.59l-170.12 -170.13 25.63 -25.84z"/>
   <path class="fil4" d="M300.4 173.99l25.84 25.63 -237.88 239.85c-9.28,-7.85 -17.97,-16.36 -26.01,-25.46l238.05 -240.02z"/>
   <path class="fil5" d="M166.02 158.1l0 16.87 23.44 0c-1.86,10.01 -10.65,17.3 -23.44,17.3 -14.21,0 -25.78,-12.04 -25.78,-26.21 0,-14.18 11.57,-26.21 25.78,-26.21 6.41,0 12.11,2.22 16.67,6.49l12.47 -12.47c-7.56,-7.09 -17.38,-11.4 -29.14,-11.4 -24.07,0 -43.55,19.48 -43.55,43.55 0,24.07 19.48,43.55 43.55,43.55 25.14,0 41.81,-17.7 41.81,-42.56 0,-3.09 -0.28,-6.06 -0.79,-8.91l-41.02 0 0 0z"/>
   <path class="fil6" d="M352.1 67.04c-43.75,0 -79.18,35.43 -79.18,79.18 0,59.67 66.63,90.75 74.51,175.91 0.24,2.37 2.25,4.23 4.67,4.23 2.41,0 4.47,-1.86 4.67,-4.23 7.88,-85.16 74.51,-116.24 74.51,-175.91 0,-43.75 -35.43,-79.18 -79.18,-79.18z"/>
   <path class="fil7" d="M352.1 118.51c15.31,0 27.71,12.41 27.71,27.71 0,15.31 -12.4,27.72 -27.71,27.72 -15.31,0 -27.72,-12.41 -27.72,-27.72 0,-15.3 12.41,-27.71 27.72,-27.71z"/>
   <path class="fil8" d="M352.1 69.02c43.35,0 78.55,34.84 79.14,78.03 0,-0.27 0.04,-0.55 0.04,-0.83 0,-43.75 -35.43,-79.18 -79.18,-79.18 -43.75,0 -79.18,35.43 -79.18,79.18 0,0.28 0.04,0.56 0.04,0.83 0.59,-43.19 35.79,-78.03 79.14,-78.03z"/>
  </g>
 </g>
</svg>
