<?xml version="1.0" encoding="UTF-8"?>
<!DOCTYPE svg PUBLIC "-//W3C//DTD SVG 1.1//EN" "http://www.w3.org/Graphics/SVG/1.1/DTD/svg11.dtd">
<!-- Creator: CorelDRAW 2019 (64-Bit) -->
<svg xmlns="http://www.w3.org/2000/svg" xml:space="preserve" width="500px" height="500px" version="1.1" style="shape-rendering:geometricPrecision; text-rendering:geometricPrecision; image-rendering:optimizeQuality; fill-rule:evenodd; clip-rule:evenodd"
viewBox="0 0 498.32 498.32"
 xmlns:xlink="http://www.w3.org/1999/xlink">
 <defs>
  <style type="text/css">
   <![CDATA[
    .fil0 {fill:#0A66C2}
    .fil1 {fill:white}
   ]]>
  </style>
 </defs>
 <g id="Слой_x0020_1">
  <metadata id="CorelCorpID_0Corel-Layer"/>
  <g id="LinkedIn">
   <circle id="_1._x0020_LinkedIn" class="fil0" cx="249.16" cy="249.16" r="249.16"/>
   <g>
    <path id="_2._x0020_LinkedIn" class="fil1" d="M348.75 348.76l-41.92 0 0 -65.65c0,-15.65 -0.27,-35.8 -21.8,-35.8 -21.83,0 -25.17,17.06 -25.17,34.66l0 66.78 -41.91 0 0 -134.98 40.24 0 0 18.44 0.56 0c7.91,-13.51 22.41,-21.83 38.07,-21.83 0.54,0 1.1,0.01 1.63,0.03 42.49,0 50.32,27.94 50.32,64.3l-0.02 74.05zm-178.1 -153.45c0,0 0,0 0,0 -13.43,0 -24.33,-10.89 -24.33,-24.32 0,-13.43 10.9,-24.32 24.33,-24.32 13.43,0 24.32,10.88 24.32,24.32 0,0 0,0 0,0 0,13.43 -10.89,24.32 -24.32,24.32l0 0zm20.96 153.45l-41.96 0 0 -134.99 41.96 0 0 134.99zm178.04 -241.02l-241.06 0c-0.08,0 -0.16,0 -0.23,0 -11.3,0 -20.51,9.09 -20.65,20.39l0 242.06c0.14,11.31 9.35,20.41 20.66,20.41 0.07,0 0.15,0 0.22,0l241.06 0c0.08,0 0.17,0 0.26,0 11.31,0 20.54,-9.1 20.7,-20.41l0 -242.08c-0.16,-11.3 -9.38,-20.39 -20.69,-20.39 -0.09,0 -0.19,0 -0.27,0l0 0.02zm0 0l0 0 0 0z" data-name="Path 2520"/>
   </g>
  </g>
 </g>
</svg>
