<svg width="20" height="20" viewBox="0 0 20 20" fill="none" xmlns="http://www.w3.org/2000/svg">
<path fill-rule="evenodd" clip-rule="evenodd" d="M19.3542 0.645773C18.4932 -0.215259 17.0972 -0.215257 16.2361 0.645775L10 6.8819L3.76391 0.645783C2.90288 -0.215249 1.50687 -0.215249 0.645835 0.645783C-0.215198 1.50682 -0.215196 2.90283 0.645836 3.76386L6.88195 9.99997L0.645774 16.2361C-0.215258 17.0972 -0.215258 18.4932 0.645774 19.3542C1.50681 20.2152 2.90282 20.2152 3.76385 19.3542L10 13.118L16.2362 19.3542C17.0972 20.2153 18.4932 20.2153 19.3543 19.3542C20.2153 18.4932 20.2153 17.0972 19.3543 16.2361L13.1181 9.99997L19.3542 3.76385C20.2152 2.90281 20.2152 1.50681 19.3542 0.645773Z" fill="url(#paint0_linear)"/>
<defs>
<linearGradient id="paint0_linear" x1="8.62251" y1="-4.5768" x2="23.0545" y2="9.69354" gradientUnits="userSpaceOnUse">
<stop stop-color="#00AEFF"/>
<stop offset="1" stop-color="#0BCED1"/>
</linearGradient>
</defs>
</svg>
