<?xml version="1.0" encoding="UTF-8"?>
<!DOCTYPE svg PUBLIC "-//W3C//DTD SVG 1.1//EN" "http://www.w3.org/Graphics/SVG/1.1/DTD/svg11.dtd">
<!-- Creator: CorelDRAW 2019 (64-Bit) -->
<svg xmlns="http://www.w3.org/2000/svg" xml:space="preserve" width="500px" height="500px" version="1.1" style="shape-rendering:geometricPrecision; text-rendering:geometricPrecision; image-rendering:optimizeQuality; fill-rule:evenodd; clip-rule:evenodd"
viewBox="0 0 224.77 224.77"
 xmlns:xlink="http://www.w3.org/1999/xlink">
 <defs>
  <style type="text/css">
   <![CDATA[
    .fil1 {fill:white}
    .fil0 {fill:url(#id0)}
   ]]>
  </style>
  <linearGradient id="id0" gradientUnits="userSpaceOnUse" x1="32.92" y1="32.92" x2="191.85" y2="191.85">
   <stop offset="0" style="stop-opacity:1; stop-color:#00AEFF"/>
   <stop offset="1" style="stop-opacity:1; stop-color:#0BCED1"/>
  </linearGradient>
 </defs>
 <g id="Слой_x0020_1">
  <metadata id="CorelCorpID_0Corel-Layer"/>
  <g id="Phone">
   <circle id="_1._x0020_Phone" class="fil0" cx="112.38" cy="112.38" r="112.38"/>
   <path id="_2._x0020_Phone" class="fil1" d="M94.74 77.35c0,-1.13 -0.92,-2.06 -2.06,-2.06l-15.33 0c-1.13,0 -2.06,0.93 -2.06,2.06 0,39.77 32.36,72.12 72.12,72.12 1.14,0 2.06,-0.92 2.06,-2.06l0 -15.28c0,-1.14 -0.92,-2.06 -2.06,-2.06 -5.6,0 -11.1,-0.88 -16.35,-2.61 -0.74,-0.25 -1.56,-0.06 -2.1,0.49l-10.8 8.18c-0.71,0.53 -1.67,0.62 -2.46,0.21 -12.87,-6.6 -20.77,-14.5 -27.28,-27.28 -0.4,-0.79 -0.31,-1.74 0.22,-2.45l7.97 -10.56c0.78,-0.81 0.97,-1.6 0.73,-2.37 -1.72,-5.22 -2.6,-10.72 -2.6,-16.33zm61.48 54.78l0 15.28c0,2.42 -0.99,4.61 -2.58,6.2l-0.03 0.03c-1.59,1.59 -3.78,2.58 -6.2,2.58 -21.74,0 -41.46,-8.85 -55.74,-23.13 -14.28,-14.27 -23.12,-33.99 -23.12,-55.74 0,-2.41 0.99,-4.6 2.58,-6.19l0.03 -0.03c1.59,-1.59 3.78,-2.58 6.19,-2.58l15.33 0c2.43,0 4.63,0.99 6.22,2.58l0 0.03c1.6,1.59 2.58,3.78 2.58,6.19 0,2.54 0.19,4.96 0.55,7.25 0.37,2.3 0.94,4.63 1.71,6.97l0.03 0.11c0.52,1.67 0.55,3.4 0.01,5.18 -0.38,1.21 -1.01,2.35 -1.92,3.41l-6.15 8.15c2.58,4.64 5.41,8.51 8.73,11.83 3.36,3.36 7.24,6.21 11.89,8.81l8.22 -6.22c1.1,-0.98 2.43,-1.65 3.86,-1.99l0 0c1.54,-0.36 3.18,-0.31 4.75,0.22l0 -0.01c2.36,0.78 4.69,1.35 6.99,1.72 2.3,0.36 4.73,0.55 7.26,0.55 2.42,0 4.61,0.99 6.2,2.58l0.03 0.02c1.59,1.6 2.58,3.79 2.58,6.2z"/>
  </g>
 </g>
</svg>
