<?xml version="1.0" encoding="UTF-8"?>
<!DOCTYPE svg PUBLIC "-//W3C//DTD SVG 1.1//EN" "http://www.w3.org/Graphics/SVG/1.1/DTD/svg11.dtd">
<!-- Creator: CorelDRAW 2019 (64-Bit) -->
<svg xmlns="http://www.w3.org/2000/svg" xml:space="preserve" width="500px" height="500px" version="1.1" style="shape-rendering:geometricPrecision; text-rendering:geometricPrecision; image-rendering:optimizeQuality; fill-rule:evenodd; clip-rule:evenodd"
viewBox="0 0 391.28 391.28"
 xmlns:xlink="http://www.w3.org/1999/xlink">
 <defs>
  <style type="text/css">
   <![CDATA[
    .fil0 {fill:#28A8EA}
    .fil1 {fill:white}
   ]]>
  </style>
 </defs>
 <g id="Слой_x0020_1">
  <metadata id="CorelCorpID_0Corel-Layer"/>
  <g id="Skype">
   <circle id="_1._x0020_Skype" class="fil0" cx="195.64" cy="195.64" r="195.64"/>
   <g>
    <path id="_2._x0020_Skype" class="fil1" d="M196 263.01c-36.98,0 -53.82,-18.67 -53.82,-32.59 0,-6.95 5.49,-12.08 12.81,-12.08 15.75,0 11.72,23.8 41.38,23.8 15.01,0 23.8,-9.15 23.8,-17.58 0,-5.12 -2.93,-10.98 -12.81,-13.18l-32.96 -8.42c-26.36,-6.59 -31.12,-21.6 -31.12,-35.15 0,-28.2 25.99,-38.45 50.53,-38.45 22.7,0 49.8,12.45 49.8,29.66 0,7.32 -6.23,11.35 -13.19,11.35 -13.54,0 -11.35,-19.04 -38.44,-19.04 -13.55,0 -20.51,6.23 -20.51,15.01 0,8.79 10.62,11.72 19.77,13.92l24.17 5.49c26.73,5.86 33.69,21.6 33.69,36.62 0,22.7 -17.94,40.64 -53.1,40.64l0 0zm102.17 -49.06c1.1,-5.86 1.46,-12.09 1.46,-18.31 0,-57.86 -46.5,-104.73 -103.99,-104.73 -6.23,0 -12.09,0.37 -17.94,1.47 -9.16,-5.13 -19.41,-8.06 -30.76,-8.06 -34.06,0 -61.89,27.83 -61.89,62.25 0,11.35 2.93,21.61 8.06,30.76 -1.1,5.86 -1.47,12.08 -1.47,18.31 0,57.85 46.51,104.72 104,104.72 6.22,0 12.08,-0.36 17.94,-1.46 9.15,5.13 19.41,8.06 30.76,8.06 34.05,0 61.88,-27.83 61.88,-62.25 0,-10.99 -2.93,-21.61 -8.05,-30.76z"/>
   </g>
  </g>
 </g>
</svg>
