<?xml version="1.0" encoding="UTF-8"?>
<!DOCTYPE svg PUBLIC "-//W3C//DTD SVG 1.1//EN" "http://www.w3.org/Graphics/SVG/1.1/DTD/svg11.dtd">
<!-- Creator: CorelDRAW 2019 (64-Bit) -->
<svg xmlns="http://www.w3.org/2000/svg" xml:space="preserve" width="500px" height="500px" version="1.1" style="shape-rendering:geometricPrecision; text-rendering:geometricPrecision; image-rendering:optimizeQuality; fill-rule:evenodd; clip-rule:evenodd"
viewBox="0 0 152.22 152.23"
 xmlns:xlink="http://www.w3.org/1999/xlink">
 <defs>
  <style type="text/css">
   <![CDATA[
    .fil1 {fill:white}
    .fil0 {fill:url(#id0)}
   ]]>
  </style>
  <linearGradient id="id0" gradientUnits="userSpaceOnUse" x1="350.95" y1="83.92" x2="213.62" y2="389.1">
   <stop offset="0" style="stop-opacity:1; stop-color:#37AEE2"/>
   <stop offset="1" style="stop-opacity:1; stop-color:#1E96C8"/>
  </linearGradient>
 </defs>
 <g id="Слой_x0020_1">
  <metadata id="CorelCorpID_0Corel-Layer"/>
  <g id="Telegram">
   <circle id="_1._x0020_Telegram" class="fil0" cx="76.11" cy="76.11" r="76.11"/>
   <path id="_2._x0020_Telegram" class="fil1" d="M31.68 75.45l51.25 -21.11c5.06,-2.2 22.22,-9.24 22.22,-9.24 0,0 7.92,-3.08 7.26,4.4 -0.22,3.08 -1.98,13.85 -3.74,25.51l-5.5 34.54c0,0 -0.44,5.06 -4.18,5.94 -3.74,0.88 -9.9,-3.08 -11,-3.96 -0.88,-0.66 -16.5,-10.56 -22.22,-15.4 -1.54,-1.32 -3.3,-3.96 0.22,-7.04 7.92,-7.26 17.38,-16.28 23.1,-22 2.64,-2.64 5.28,-8.8 -5.72,-1.32l-31.02 20.9c0,0 -3.51,2.2 -10.11,0.22 -6.6,-1.98 -14.3,-4.62 -14.3,-4.62 0,0 -5.28,-3.3 3.74,-6.82l0 0z"/>
  </g>
 </g>
</svg>
