<?xml version="1.0" encoding="UTF-8"?>
<!DOCTYPE svg PUBLIC "-//W3C//DTD SVG 1.1//EN" "http://www.w3.org/Graphics/SVG/1.1/DTD/svg11.dtd">
<!-- Creator: CorelDRAW 2019 (64-Bit) -->
<svg xmlns="http://www.w3.org/2000/svg" xml:space="preserve" width="500px" height="500px" version="1.1" style="shape-rendering:geometricPrecision; text-rendering:geometricPrecision; image-rendering:optimizeQuality; fill-rule:evenodd; clip-rule:evenodd"
viewBox="0 0 152.23 152.23"
 xmlns:xlink="http://www.w3.org/1999/xlink">
 <defs>
  <style type="text/css">
   <![CDATA[
    .fil0 {fill:#1DA1F2}
    .fil1 {fill:white;fill-rule:nonzero}
   ]]>
  </style>
 </defs>
 <g id="Слой_x0020_1">
  <metadata id="CorelCorpID_0Corel-Layer"/>
  <g id="Twitter">
   <circle id="_1._x0020_Twitter" class="fil0" cx="76.11" cy="76.11" r="76.11"/>
   <path id="_2._x0020_Twitter" class="fil1" d="M60.15 111.08c32.47,0 50.23,-26.9 50.23,-50.23 0,-0.76 -0.02,-1.53 -0.05,-2.28 3.45,-2.5 6.44,-5.6 8.81,-9.14 -3.17,1.4 -6.57,2.35 -10.14,2.77 3.64,-2.18 6.44,-5.64 7.76,-9.76 -3.41,2.02 -7.19,3.49 -11.21,4.29 -3.22,-3.44 -7.81,-5.58 -12.89,-5.58 -9.74,0 -17.65,7.9 -17.65,17.65 0,1.38 0.15,2.73 0.46,4.02 -14.68,-0.73 -27.69,-7.76 -36.39,-18.44 -1.52,2.61 -2.39,5.64 -2.39,8.87 0,6.13 3.11,11.53 7.85,14.7 -2.89,-0.09 -5.61,-0.89 -7.99,-2.21 -0.01,0.07 -0.01,0.15 -0.01,0.23 0,8.54 6.09,15.68 14.17,17.3 -1.49,0.41 -3.05,0.62 -4.66,0.62 -1.13,0 -2.24,-0.11 -3.31,-0.32 2.24,7.02 8.76,12.12 16.49,12.27 -6.05,4.73 -13.66,7.55 -21.93,7.55 -1.42,0 -2.83,-0.08 -4.21,-0.24 7.81,5.01 17.09,7.93 27.06,7.93z"/>
  </g>
 </g>
</svg>
