<svg width="60" height="82" viewBox="0 0 60 82" fill="none" xmlns="http://www.w3.org/2000/svg">
<path fill-rule="evenodd" clip-rule="evenodd" d="M32.9965 78.2302C32.9965 79.8896 31.6616 81.2422 30.007 81.2422C28.3523 81.2422 27.0035 79.8896 27.0035 78.2302C27.0035 76.5707 28.3523 75.2181 30.007 75.2181C31.6616 75.2181 32.9965 76.5707 32.9965 78.2302ZM30.007 53.0599C17.3534 53.0599 7.09154 42.7826 7.09154 30.0928C7.09154 17.4031 17.3534 7.11183 30.007 7.11183C42.6605 7.11183 52.9085 17.4031 52.9085 30.0928C52.9085 42.7826 42.6605 53.0599 30.007 53.0599ZM30.007 0C13.4322 0 0 13.4706 0 30.0928C0 43.6053 8.88528 55.0261 21.1078 58.833L27.3928 69.7517C28.4496 71.5785 31.0776 71.5785 32.1205 69.7517L38.3221 59.0003C50.8366 55.3747 60 43.8145 60 30.0928C60 13.4706 46.5678 0 30.007 0V0Z" fill="url(#paint0_linear)"/>
<defs>
<linearGradient id="paint0_linear" x1="2.60023" y1="20.2618" x2="57.5106" y2="60.8165" gradientUnits="userSpaceOnUse">
<stop stop-color="#00AEFF"/>
<stop offset="1" stop-color="#0BCED1"/>
</linearGradient>
</defs>
</svg>
