<?xml version="1.0" encoding="UTF-8"?>
<!DOCTYPE svg PUBLIC "-//W3C//DTD SVG 1.1//EN" "http://www.w3.org/Graphics/SVG/1.1/DTD/svg11.dtd">
<!-- Creator: CorelDRAW 2019 (64-Bit) -->
<svg xmlns="http://www.w3.org/2000/svg" xml:space="preserve" width="500px" height="500px" version="1.1" style="shape-rendering:geometricPrecision; text-rendering:geometricPrecision; image-rendering:optimizeQuality; fill-rule:evenodd; clip-rule:evenodd"
viewBox="0 0 107.14 107.14"
 xmlns:xlink="http://www.w3.org/1999/xlink">
 <defs>
  <style type="text/css">
   <![CDATA[
    .fil1 {fill:white}
    .fil0 {fill:url(#id0)}
   ]]>
  </style>
  <linearGradient id="id0" gradientUnits="userSpaceOnUse" x1="15.69" y1="15.69" x2="91.45" y2="91.45">
   <stop offset="0" style="stop-opacity:1; stop-color:#00AEFF"/>
   <stop offset="1" style="stop-opacity:1; stop-color:#0BCED1"/>
  </linearGradient>
 </defs>
 <g id="Слой_x0020_1">
  <metadata id="CorelCorpID_0Corel-Layer"/>
  <g id="User">
   <circle id="_1._x0020_User" class="fil0" cx="53.57" cy="53.57" r="53.57"/>
   <path id="_2._x0020_User" class="fil1" d="M37.39 71.25l32.36 0c0,-8.92 -7.26,-16.18 -16.18,-16.18 -8.92,0 -16.18,7.26 -16.18,16.18zm16.18 -19.18c-4.46,0 -8.09,-3.63 -8.09,-8.09 0,-4.46 3.63,-8.09 8.09,-8.09 4.46,0 8.09,3.63 8.09,8.09 0,4.46 -3.63,8.09 -8.09,8.09zm16.18 22.39l-32.36 0c-1.78,0 -3.21,-1.44 -3.21,-3.21 0,-5.35 2.17,-10.2 5.68,-13.71 1.96,-1.96 4.33,-3.5 6.98,-4.48 -0.45,-0.33 -0.87,-0.7 -1.26,-1.09 -2.05,-2.04 -3.31,-4.87 -3.31,-7.99 0,-3.12 1.26,-5.94 3.31,-7.99 2.05,-2.05 4.87,-3.31 7.99,-3.31 3.12,0 5.94,1.26 7.99,3.31 2.05,2.05 3.31,4.87 3.31,7.99 0,3.12 -1.26,5.94 -3.31,7.99 -0.39,0.39 -0.81,0.76 -1.26,1.09 2.65,0.98 5.02,2.52 6.98,4.48 3.51,3.51 5.68,8.36 5.68,13.71 0,1.77 -1.44,3.21 -3.21,3.21z"/>
  </g>
 </g>
</svg>
