<?xml version="1.0" encoding="UTF-8"?>
<!DOCTYPE svg PUBLIC "-//W3C//DTD SVG 1.1//EN" "http://www.w3.org/Graphics/SVG/1.1/DTD/svg11.dtd">
<!-- Creator: CorelDRAW 2019 (64-Bit) -->
<svg xmlns="http://www.w3.org/2000/svg" xml:space="preserve" width="500px" height="500px" version="1.1" style="shape-rendering:geometricPrecision; text-rendering:geometricPrecision; image-rendering:optimizeQuality; fill-rule:evenodd; clip-rule:evenodd"
viewBox="0 0 391.27 391.27"
 xmlns:xlink="http://www.w3.org/1999/xlink">
 <defs>
  <style type="text/css">
   <![CDATA[
    .fil0 {fill:#7360F2}
    .fil1 {fill:white}
   ]]>
  </style>
 </defs>
 <g id="Слой_x0020_1">
  <metadata id="CorelCorpID_0Corel-Layer"/>
  <g id="Viber">
   <circle id="_1._x0020_Viber" class="fil0" cx="195.64" cy="195.64" r="195.64"/>
   <path id="_2._x0020_Viber" class="fil1" d="M281.26 115.62c-5.8,-5.35 -29.22,-22.35 -81.38,-22.58 0,0 -61.52,-3.71 -91.51,23.8 -16.69,16.7 -22.56,41.13 -23.18,71.42 -0.62,30.28 -1.42,87.05 53.29,102.44l0.06 0 -0.04 23.48c0,0 -0.35,9.51 5.91,11.45 7.57,2.35 12.02,-4.87 19.25,-12.66 3.97,-4.28 9.45,-10.56 13.58,-15.36 37.42,3.15 66.2,-4.05 69.47,-5.11 7.55,-2.46 50.31,-7.94 57.26,-64.69 7.18,-58.51 -3.47,-95.51 -22.71,-112.19zm-76.96 110.83c0,0 4.15,0.35 6.38,-2.4l4.36 -5.48c2.1,-2.72 7.16,-4.45 12.13,-1.68 3.71,2.11 7.33,4.43 10.81,6.91 3.29,2.42 10.03,8.05 10.06,8.05 3.21,2.71 3.95,6.69 1.76,10.89 0,0.02 -0.02,0.07 -0.02,0.09 -2.4,4.17 -5.46,7.94 -9.05,11.15 -0.04,0.02 -0.04,0.04 -0.08,0.06 -3.12,2.61 -6.19,4.1 -9.2,4.45 -0.35,0.06 -0.7,0.09 -1.05,0.09 -0.1,0 -0.2,0 -0.29,0 -0.04,0 -0.08,0 -0.12,0 -1.29,0 -2.57,-0.21 -3.8,-0.61l-0.09 -0.14c-4.64,-1.31 -12.39,-4.58 -25.3,-11.7 -7.45,-4.06 -14.58,-8.79 -21.24,-14.05 -3.34,-2.61 -6.55,-5.47 -9.56,-8.46l-0.32 -0.32 -0.32 -0.32 -0.01 -0.01 -0.32 -0.32c-0.11,-0.11 -0.21,-0.21 -0.32,-0.32 -3,-3.01 -5.85,-6.22 -8.48,-9.55 -5.23,-6.66 -9.98,-13.82 -14.03,-21.25 -7.12,-12.91 -10.4,-20.65 -11.71,-25.3l-0.14 -0.1c-0.39,-1.22 -0.6,-2.5 -0.6,-3.78 0,-0.04 0,-0.09 0,-0.13 0,-0.11 -0.01,-0.22 -0.01,-0.32 0,-0.35 0.03,-0.69 0.09,-1.03 0.38,-3 1.86,-6.07 4.46,-9.2 0.02,-0.04 0.04,-0.04 0.06,-0.08 3.21,-3.6 6.99,-6.66 11.16,-9.06 0.02,0 0.06,-0.02 0.09,-0.02 4.2,-2.19 8.18,-1.45 10.89,1.75 0.02,0.02 5.64,6.76 8.05,10.06 2.47,3.47 4.79,7.1 6.9,10.82 2.77,4.96 1.03,10.03 -1.68,12.13l-5.48 4.35c-2.76,2.23 -2.4,6.38 -2.4,6.38 0,0 8.11,30.71 38.42,38.45zm47.68 -25.44c-1.62,0 -2.93,-1.31 -2.95,-2.93 -0.14,-18.03 -5.33,-31.8 -15.88,-42.1 -10.42,-10.15 -23.58,-15.36 -39.13,-15.47 -1.63,0 -2.94,-1.33 -2.94,-2.95 0,-1.63 1.32,-2.95 2.95,-2.95 0,0 0.01,0 0.01,0l0.02 0c17.12,0.13 31.66,5.89 43.21,17.15 11.56,11.25 17.51,26.85 17.67,46.29 0,0 0,0.01 0,0.02 0,1.62 -1.31,2.94 -2.93,2.95l-0.03 -0.01zm-15.49 -6.05l-0.07 0c-1.6,-0.04 -2.88,-1.35 -2.88,-2.95 0,-0.02 0,-0.05 0,-0.07 0.23,-10.08 -2.65,-18.25 -8.81,-24.96 -6.15,-6.71 -14.53,-10.35 -25.7,-11.17 -1.55,-0.11 -2.74,-1.4 -2.74,-2.95 0,-1.63 1.32,-2.95 2.95,-2.95 0.07,0 0.15,0 0.22,0.01 12.57,0.92 22.54,5.32 29.62,13.07 7.09,7.75 10.61,17.56 10.36,29.07 -0.04,1.61 -1.34,2.89 -2.95,2.9l0 0zm-15.14 -5.08c0,0 0,0 0,0 -1.57,0 -2.86,-1.23 -2.94,-2.8 -0.5,-10.01 -5.22,-14.91 -14.85,-15.43 -1.53,-0.12 -2.71,-1.4 -2.71,-2.94 0,-1.63 1.32,-2.95 2.95,-2.95 0.02,0 0.05,0 0.08,0 12.7,0.7 19.77,7.95 20.42,21.03 0,0.05 0,0.1 0,0.15 0,1.57 -1.23,2.87 -2.8,2.94l-0.15 0zm66.25 33.73c-5.87,47.39 -40.55,50.37 -46.94,52.42 -2.72,0.88 -28,7.17 -59.79,5.09 0,0 -23.68,28.57 -31.08,36.01 -1.15,1.16 -2.51,1.63 -3.42,1.4 -1.27,-0.32 -1.62,-1.83 -1.61,-4.03 0.02,-3.15 0.21,-39.03 0.21,-39.03 0,0 -0.03,0 0,0 -46.29,-12.85 -43.59,-61.16 -43.07,-86.46 0.53,-25.3 5.28,-46.02 19.4,-59.96 25.36,-22.98 77.61,-19.54 77.61,-19.54 44.13,0.19 65.27,13.48 70.18,17.93 16.28,13.94 24.57,47.29 18.51,96.16l0 0.01z"/>
  </g>
 </g>
</svg>
