<?xml version="1.0" encoding="UTF-8"?>
<!DOCTYPE svg PUBLIC "-//W3C//DTD SVG 1.1//EN" "http://www.w3.org/Graphics/SVG/1.1/DTD/svg11.dtd">
<!-- Creator: CorelDRAW 2019 (64-Bit) -->
<svg xmlns="http://www.w3.org/2000/svg" xml:space="preserve" width="500px" height="500px" version="1.1" style="shape-rendering:geometricPrecision; text-rendering:geometricPrecision; image-rendering:optimizeQuality; fill-rule:evenodd; clip-rule:evenodd"
viewBox="0 0 391.27 391.27"
 xmlns:xlink="http://www.w3.org/1999/xlink">
 <defs>
  <style type="text/css">
   <![CDATA[
    .fil0 {fill:#1AB7EA}
    .fil1 {fill:#FEFEFE;fill-rule:nonzero}
   ]]>
  </style>
 </defs>
 <g id="Слой_x0020_1">
  <metadata id="CorelCorpID_0Corel-Layer"/>
  <g id="Vimeo">
   <circle id="_1._x0020_Vimeo" class="fil0" cx="195.64" cy="195.64" r="195.64"/>
   <path id="_2._x0020_Vimeo" class="fil1" d="M329.23 129.94c-1.26,27.52 -20.48,65.2 -57.66,113.03 -38.45,49.95 -70.97,74.94 -97.57,74.94 -16.49,0 -30.44,-15.21 -41.83,-45.64 -7.61,-27.89 -15.21,-55.78 -22.82,-83.68 -8.46,-30.41 -17.54,-45.64 -27.24,-45.64 -2.12,0 -9.52,4.46 -22.19,13.32l-13.3 -17.14c13.95,-12.25 27.71,-24.51 41.26,-36.79 18.61,-16.08 32.58,-24.53 41.9,-25.38 22,-2.12 35.54,12.92 40.63,45.11 5.49,34.74 9.3,56.34 11.43,64.8 6.35,28.82 13.32,43.21 20.95,43.21 5.91,0 14.81,-9.34 26.66,-28.05 11.84,-18.69 18.18,-32.91 19.04,-42.68 1.69,-16.14 -4.66,-24.22 -19.04,-24.22 -6.77,0 -13.75,1.56 -20.93,4.64 13.9,-45.51 40.45,-67.62 79.63,-66.36 29.06,0.86 42.76,19.7 41.08,56.53z"/>
  </g>
 </g>
</svg>
