<?xml version="1.0" encoding="UTF-8"?>
<!DOCTYPE svg PUBLIC "-//W3C//DTD SVG 1.1//EN" "http://www.w3.org/Graphics/SVG/1.1/DTD/svg11.dtd">
<!-- Creator: CorelDRAW 2019 (64-Bit) -->
<svg xmlns="http://www.w3.org/2000/svg" xml:space="preserve" width="500px" height="500px" version="1.1" style="shape-rendering:geometricPrecision; text-rendering:geometricPrecision; image-rendering:optimizeQuality; fill-rule:evenodd; clip-rule:evenodd"
viewBox="0 0 187.96 187.96"
 xmlns:xlink="http://www.w3.org/1999/xlink">
 <defs>
  <style type="text/css">
   <![CDATA[
    .fil1 {fill:white}
    .fil0 {fill:url(#id0)}
   ]]>
  </style>
  <linearGradient id="id0" gradientUnits="userSpaceOnUse" x1="27.53" y1="27.53" x2="160.43" y2="160.43">
   <stop offset="0" style="stop-opacity:1; stop-color:#00AEFF"/>
   <stop offset="1" style="stop-opacity:1; stop-color:#0BCED1"/>
  </linearGradient>
 </defs>
 <g id="Слой_x0020_1">
  <metadata id="CorelCorpID_0Corel-Layer"/>
  <g id="Web-site">
   <circle id="_1._x0020_Web-site" class="fil0" cx="93.98" cy="93.98" r="93.98"/>
   <path id="_2._x0020_Web-site" class="fil1" d="M52.85 132.49c0.05,0.04 0.11,0.08 0.16,0.12 0.08,0.05 0.14,0.1 0.2,0.16 10.6,11.22 25.35,17.57 40.79,17.57 15.43,-0.01 30.18,-6.37 40.77,-17.59 0.06,-0.07 0.13,-0.12 0.2,-0.17 0.04,-0.02 0.08,-0.05 0.11,-0.07 0.13,-0.1 0.23,-0.2 0.31,-0.34 0.02,-0.04 0.04,-0.07 0.06,-0.1 0.05,-0.09 0.1,-0.16 0.16,-0.23 19.67,-21.46 19.64,-54.41 -0.1,-75.83l-0.01 0c-0.04,-0.09 -0.09,-0.17 -0.14,-0.25 -0.07,-0.12 -0.15,-0.21 -0.26,-0.3 -0.05,-0.04 -0.11,-0.08 -0.17,-0.12 -0.07,-0.05 -0.13,-0.1 -0.19,-0.16 -10.6,-11.21 -25.34,-17.56 -40.77,-17.56 -15.42,0 -30.16,6.35 -40.76,17.56 -0.06,0.06 -0.12,0.11 -0.2,0.16 -0.05,0.04 -0.11,0.08 -0.16,0.12 -0.11,0.09 -0.19,0.18 -0.26,0.3 -0.03,0.04 -0.06,0.09 -0.08,0.13 -0.05,0.09 -0.1,0.16 -0.16,0.23 -19.64,21.42 -19.64,54.3 0,75.71 0.06,0.07 0.11,0.14 0.16,0.23 0.02,0.04 0.05,0.09 0.07,0.13 0.08,0.12 0.16,0.21 0.27,0.3zm58.82 6.77c3.18,-4.48 5.64,-9.45 7.26,-14.72l0 -0.01c3.14,1.47 6.11,3.25 8.89,5.31 0.28,0.21 0.43,0.5 0.45,0.85 0.02,0.35 -0.11,0.66 -0.37,0.89 -4.38,3.97 -9.42,7.15 -14.89,9.38 -0.47,0.19 -0.99,0.05 -1.31,-0.35 -0.31,-0.39 -0.33,-0.93 -0.03,-1.35zm20.25 -13.37c-3.27,-2.52 -6.81,-4.69 -10.55,-6.45 -0.49,-0.23 -0.74,-0.76 -0.62,-1.28 1.59,-6.65 2.5,-13.44 2.71,-20.27 0.01,-0.61 0.51,-1.1 1.12,-1.1l18.76 0c0.33,0 0.61,0.13 0.83,0.37 0.22,0.24 0.32,0.52 0.3,0.85 -0.79,10.12 -4.62,19.78 -10.98,27.69 -0.39,0.48 -1.08,0.57 -1.57,0.19zm11.42 -34.73l-18.76 0c-0.61,0 -1.11,-0.48 -1.12,-1.09 -0.21,-6.84 -1.12,-13.63 -2.71,-20.28 -0.12,-0.52 0.13,-1.05 0.62,-1.28 3.74,-1.76 7.28,-3.92 10.55,-6.44 0.49,-0.38 1.18,-0.29 1.57,0.18 6.36,7.92 10.19,17.57 10.98,27.69 0.02,0.33 -0.08,0.62 -0.3,0.86 -0.22,0.24 -0.5,0.36 -0.83,0.36zm-15.52 -33.06c-2.43,1.8 -5,3.39 -7.71,4.74 -0.3,0.15 -0.62,0.16 -0.93,0.03 -0.31,-0.13 -0.53,-0.36 -0.64,-0.68 -1.62,-4.82 -3.93,-9.37 -6.87,-13.51 -0.3,-0.41 -0.28,-0.95 0.03,-1.35 0.32,-0.4 0.84,-0.54 1.31,-0.34 5.47,2.23 10.51,5.4 14.89,9.37 0.26,0.24 0.39,0.55 0.37,0.89 -0.02,0.35 -0.17,0.65 -0.45,0.85zm-29.48 -13.93c6.06,2.48 11.39,9.96 14.95,20.27 0.1,0.3 0.08,0.59 -0.06,0.87 -0.14,0.28 -0.36,0.47 -0.66,0.57 -4.73,1.53 -9.63,2.46 -14.58,2.78 -0.33,0.02 -0.61,-0.08 -0.85,-0.3 -0.23,-0.22 -0.35,-0.5 -0.35,-0.82l0 -22.33c0,-0.38 0.17,-0.72 0.49,-0.93 0.33,-0.22 0.7,-0.26 1.06,-0.11zm-0.49 30.15c5.5,-0.3 10.95,-1.29 16.2,-2.96 0.31,-0.09 0.61,-0.06 0.9,0.1 0.28,0.16 0.46,0.41 0.54,0.73 1.33,5.85 2.11,11.81 2.33,17.8 0.01,0.32 -0.1,0.6 -0.32,0.82 -0.22,0.23 -0.49,0.35 -0.81,0.35l-18.78 0c-0.62,0 -1.12,-0.51 -1.12,-1.13l0 -14.59c0,-0.6 0.46,-1.09 1.06,-1.12zm0.06 22.47l18.78 0c0.32,0 0.59,0.12 0.81,0.35 0.22,0.23 0.33,0.5 0.32,0.82 -0.22,6 -1,11.95 -2.33,17.8 -0.08,0.32 -0.26,0.57 -0.54,0.73 -0.29,0.16 -0.59,0.19 -0.9,0.09 -5.25,-1.66 -10.7,-2.65 -16.2,-2.94 -0.6,-0.04 -1.06,-0.53 -1.06,-1.13l0 -14.59c0,-0.62 0.5,-1.13 1.12,-1.13zm0.08 22.5c4.95,0.32 9.85,1.26 14.58,2.79 0.3,0.09 0.52,0.28 0.66,0.57 0.14,0.28 0.16,0.57 0.06,0.87 -3.56,10.31 -8.89,17.79 -14.95,20.27 -0.36,0.14 -0.73,0.11 -1.06,-0.11 -0.32,-0.22 -0.49,-0.55 -0.49,-0.94l0 -22.32c0,-0.33 0.12,-0.61 0.35,-0.83 0.24,-0.22 0.52,-0.32 0.85,-0.3zm-37.87 10.54c2.78,-2.05 5.75,-3.83 8.88,-5.29l0 -0.01c1.63,5.27 4.08,10.24 7.27,14.72 0.29,0.42 0.28,0.96 -0.04,1.36 -0.32,0.4 -0.84,0.53 -1.31,0.34 -5.46,-2.23 -10.5,-5.4 -14.88,-9.38 -0.26,-0.23 -0.39,-0.54 -0.37,-0.89 0.01,-0.35 0.17,-0.64 0.45,-0.85zm29.48 13.95c-6.06,-2.47 -11.39,-9.96 -14.95,-20.27 -0.1,-0.29 -0.09,-0.59 0.05,-0.87 0.14,-0.28 0.37,-0.47 0.67,-0.57 4.72,-1.53 9.62,-2.46 14.58,-2.78 0.32,-0.02 0.61,0.08 0.84,0.3 0.24,0.22 0.36,0.5 0.36,0.83l0 22.32c0,0.39 -0.18,0.72 -0.5,0.94 -0.32,0.21 -0.7,0.25 -1.05,0.1zm0.48 -30.14c-5.5,0.29 -10.94,1.28 -16.19,2.95 -0.31,0.1 -0.62,0.07 -0.9,-0.1 -0.29,-0.16 -0.47,-0.41 -0.54,-0.72 -1.33,-5.85 -2.12,-11.81 -2.33,-17.81 -0.01,-0.32 0.1,-0.59 0.32,-0.82 0.22,-0.23 0.49,-0.35 0.81,-0.35l18.77 0c0.62,0 1.13,0.51 1.13,1.13l0 14.59c0,0.6 -0.47,1.09 -1.07,1.13zm-0.06 -22.48l-18.77 0c-0.32,0 -0.59,-0.12 -0.81,-0.35 -0.22,-0.22 -0.33,-0.5 -0.32,-0.82 0.22,-5.99 1,-11.95 2.33,-17.8 0.07,-0.32 0.26,-0.56 0.54,-0.72 0.28,-0.17 0.59,-0.2 0.9,-0.1 5.25,1.66 10.69,2.65 16.19,2.95 0.6,0.03 1.07,0.52 1.07,1.12l0 14.59c0,0.62 -0.51,1.13 -1.13,1.13zm1.13 -45.95l0 22.33c0,0.32 -0.12,0.6 -0.36,0.82 -0.23,0.22 -0.52,0.32 -0.84,0.3 -4.96,-0.32 -9.86,-1.25 -14.58,-2.78 -0.3,-0.1 -0.53,-0.29 -0.67,-0.57 -0.14,-0.28 -0.15,-0.58 -0.05,-0.87 3.56,-10.31 8.89,-17.79 14.95,-20.27 0.35,-0.15 0.73,-0.11 1.05,0.1 0.32,0.22 0.5,0.55 0.5,0.94zm-14.88 3.46c-3.19,4.49 -5.64,9.47 -7.27,14.74l0 -0.01c-3.13,-1.47 -6.11,-3.24 -8.88,-5.31 -0.28,-0.2 -0.44,-0.5 -0.46,-0.85 -0.01,-0.34 0.12,-0.65 0.37,-0.89 4.39,-3.97 9.43,-7.14 14.89,-9.37 0.47,-0.19 1,-0.06 1.31,0.34 0.32,0.4 0.33,0.94 0.04,1.35zm-20.26 13.39c3.28,2.53 6.82,4.69 10.56,6.45 0.49,0.23 0.74,0.76 0.61,1.28 -1.58,6.65 -2.49,13.44 -2.7,20.28 -0.02,0.6 -0.52,1.09 -1.13,1.09l-18.76 0c-0.32,0 -0.6,-0.12 -0.83,-0.36 -0.22,-0.24 -0.32,-0.53 -0.29,-0.86 0.79,-10.12 4.61,-19.78 10.98,-27.69 0.38,-0.48 1.08,-0.56 1.56,-0.19zm8.44 34.73c0.14,7.2 1.06,14.37 2.73,21.37 0.13,0.52 -0.12,1.05 -0.61,1.28 -3.74,1.76 -7.28,3.92 -10.56,6.45 -0.48,0.37 -1.18,0.29 -1.56,-0.19 -6.37,-7.91 -10.19,-17.57 -10.98,-27.69 -0.03,-0.33 0.07,-0.62 0.29,-0.85 0.23,-0.24 0.51,-0.37 0.83,-0.37l19.86 0 0 0z"/>
  </g>
 </g>
</svg>
