<?xml version="1.0" encoding="UTF-8"?>
<!DOCTYPE svg PUBLIC "-//W3C//DTD SVG 1.1//EN" "http://www.w3.org/Graphics/SVG/1.1/DTD/svg11.dtd">
<!-- Creator: CorelDRAW 2019 (64-Bit) -->
<svg xmlns="http://www.w3.org/2000/svg" xml:space="preserve" width="500px" height="500px" version="1.1" style="shape-rendering:geometricPrecision; text-rendering:geometricPrecision; image-rendering:optimizeQuality; fill-rule:evenodd; clip-rule:evenodd"
viewBox="0 0 152.23 152.23"
 xmlns:xlink="http://www.w3.org/1999/xlink">
 <defs>
  <style type="text/css">
   <![CDATA[
    .fil0 {fill:red}
    .fil1 {fill:white}
   ]]>
  </style>
 </defs>
 <g id="Слой_x0020_1">
  <metadata id="CorelCorpID_0Corel-Layer"/>
  <g id="YouTube">
   <circle id="_1._x0020_YouTube" class="fil0" cx="76.11" cy="76.11" r="76.11"/>
   <path id="_2._x0020_YouTube" class="fil1" d="M124.81 51.65c-1.17,-4.37 -4.61,-7.82 -8.99,-8.99 -7.92,-2.12 -39.71,-2.12 -39.71,-2.12 0,0 -31.78,0 -39.71,2.12 -4.37,1.17 -7.81,4.62 -8.98,8.99 -2.13,7.92 -2.13,24.46 -2.13,24.46 0,0 0,16.54 2.13,24.47 1.17,4.37 4.61,7.81 8.98,8.98 7.93,2.13 39.71,2.13 39.71,2.13 0,0 31.79,0 39.71,-2.13 4.38,-1.17 7.82,-4.61 8.99,-8.98 2.12,-7.93 2.12,-24.47 2.12,-24.47 0,0 0,-16.54 -2.12,-24.46zm-58.86 39.71l26.4 -15.25 -26.4 -15.24 0 30.49z"/>
  </g>
 </g>
</svg>
